<?xml version="1.0" standalone="no"?>
<!DOCTYPE svg PUBLIC "-//W3C//DTD SVG 20010904//EN"
 "http://www.w3.org/TR/2001/REC-SVG-20010904/DTD/svg10.dtd">
<svg version="1.0" xmlns="http://www.w3.org/2000/svg"
 width="1194.000000pt" height="1194.000000pt" viewBox="0 0 1194.000000 1194.000000"
 preserveAspectRatio="xMidYMid meet">
<metadata>
Created by potrace 1.11, written by Peter Selinger 2001-2013
</metadata>
<g transform="translate(0.000000,1194.000000) scale(0.100000,-0.100000)"
fill="#000000" stroke="none">
<path d="M5689 10716 c-2 -2 -55 -7 -117 -11 -63 -4 -124 -8 -135 -10 -12 -2
-49 -6 -82 -10 -32 -4 -68 -9 -78 -11 -11 -2 -45 -6 -76 -10 -31 -3 -63 -8
-71 -9 -45 -10 -229 -47 -250 -51 -22 -4 -69 -14 -92 -20 -5 -1 -9 -2 -10 -3
-2 -2 -14 -4 -27 -7 -103 -19 -477 -142 -666 -218 -292 -119 -629 -300 -900
-483 -60 -41 -111 -79 -113 -84 -2 -5 -8 -9 -14 -9 -6 0 -25 -12 -44 -27 -18
-16 -51 -41 -73 -58 -23 -16 -52 -40 -66 -52 -13 -12 -42 -34 -62 -50 -21 -15
-47 -37 -58 -48 -11 -11 -49 -45 -85 -76 -36 -31 -114 -106 -175 -166 -97 -96
-144 -146 -254 -268 -33 -37 -188 -230 -216 -270 -11 -15 -32 -42 -46 -59 -14
-17 -34 -46 -44 -63 -11 -18 -23 -33 -27 -33 -4 0 -8 -6 -8 -13 0 -7 -8 -22
-18 -33 -10 -10 -27 -35 -38 -54 -10 -19 -25 -39 -31 -43 -7 -4 -13 -12 -13
-18 0 -5 -23 -46 -51 -91 -75 -119 -237 -427 -283 -538 -10 -25 -29 -68 -41
-95 -52 -115 -187 -501 -200 -572 -2 -10 -4 -18 -5 -18 -1 0 -3 -7 -5 -15 -1
-8 -10 -42 -19 -75 -9 -33 -19 -69 -21 -80 -2 -11 -11 -51 -19 -88 -9 -37 -18
-80 -21 -95 -3 -15 -7 -38 -10 -52 -16 -77 -32 -188 -55 -370 -19 -157 -21
-184 -25 -472 -5 -290 -4 -299 30 -304 6 -1 45 -7 88 -14 43 -6 88 -13 100
-15 12 -2 42 -6 67 -9 l45 -6 -1 268 c-2 280 4 370 36 617 19 142 23 166 35
225 3 14 8 41 11 60 3 19 13 64 21 100 8 36 16 72 18 81 9 46 69 257 99 348
42 129 53 137 117 77 25 -22 68 -61 95 -86 43 -39 55 -58 82 -133 30 -83 74
-243 87 -314 3 -18 12 -61 20 -95 8 -35 16 -79 19 -98 2 -19 7 -46 10 -60 8
-38 23 -141 32 -220 24 -229 24 -645 0 -790 -3 -14 -7 -43 -10 -65 -5 -39 -29
-164 -41 -215 -3 -14 -8 -36 -11 -50 -12 -60 -97 -298 -136 -383 -98 -214
-287 -481 -347 -491 -78 -14 -92 -18 -86 -24 6 -6 -81 -25 -169 -37 -22 -3
-45 -10 -53 -16 -7 -6 -13 -9 -13 -6 0 3 -19 0 -42 -5 -24 -5 -54 -12 -67 -14
-13 -3 -39 -11 -57 -19 -19 -8 -34 -11 -34 -8 0 3 -6 1 -12 -4 -7 -5 -29 -10
-48 -12 -19 -1 -37 -5 -40 -10 -3 -4 -21 -13 -40 -20 -43 -14 -64 -30 -73 -54
-5 -14 -3 -17 11 -13 25 7 291 79 467 125 135 36 169 42 153 26 -4 -5 -157
-51 -200 -61 -29 -7 -45 -11 -233 -64 -99 -27 -185 -52 -192 -55 -9 -3 -10
-12 -2 -34 l11 -30 141 51 c78 27 153 54 167 58 14 4 89 31 167 59 79 28 143
47 143 42 0 -11 -40 -27 -333 -132 -141 -50 -259 -95 -261 -98 -6 -10 59 -52
80 -53 15 -1 444 201 517 243 11 6 21 8 24 6 3 -3 -6 -11 -19 -18 -12 -6 -54
-28 -93 -49 -38 -20 -139 -72 -222 -116 -84 -43 -153 -82 -153 -86 0 -6 53
-21 66 -18 4 1 10 -4 15 -12 7 -10 11 -10 21 3 7 9 67 54 133 99 66 46 148
103 182 127 35 24 63 42 63 39 0 -5 -83 -69 -136 -106 -34 -23 -176 -127 -204
-149 l-24 -19 43 -12 42 -11 67 59 c139 121 244 204 250 197 7 -7 -27 -40
-112 -110 -119 -97 -166 -139 -166 -146 0 -8 17 -13 73 -22 25 -4 33 4 90 85
95 137 103 143 32 24 -36 -61 -70 -116 -76 -122 -7 -9 -5 -15 8 -23 17 -8 27
6 91 120 40 71 72 133 72 138 0 5 7 14 15 21 8 7 15 10 15 6 0 -4 -38 -80 -85
-171 -66 -127 -82 -166 -72 -172 8 -4 16 -15 19 -23 3 -9 16 8 32 45 71 160
111 244 114 240 2 -2 -24 -70 -57 -150 -64 -151 -70 -187 -35 -215 17 -15 9
-35 79 214 30 110 57 201 60 204 14 15 11 -12 -11 -93 -13 -50 -26 -99 -28
-110 -3 -11 -19 -71 -36 -134 -30 -110 -30 -114 -13 -134 42 -49 42 -49 47
-25 12 58 36 197 41 238 4 25 10 63 15 85 5 22 11 60 15 84 7 48 23 96 30 89
3 -2 -11 -96 -29 -209 -19 -112 -37 -224 -41 -249 -3 -25 -8 -52 -11 -61 -3
-10 8 -27 26 -43 44 -37 60 -34 61 12 1 51 9 258 13 372 2 52 5 117 5 143 1
31 5 46 12 42 7 -5 8 -54 4 -148 -17 -443 -17 -466 2 -462 10 2 22 4 26 4 4 1
5 121 2 268 -4 147 -4 265 -1 262 3 -3 9 -77 12 -165 3 -87 7 -188 9 -224 2
-36 4 -80 4 -99 1 -29 3 -32 17 -21 28 24 38 55 39 128 1 39 -1 72 -4 72 -3 0
-7 26 -8 58 -1 31 -5 86 -8 122 -3 36 -8 90 -9 120 -2 30 -5 57 -6 60 -6 13
-4 47 3 63 5 10 4 17 -3 17 -6 0 -8 10 -5 23 8 29 13 59 14 74 1 6 30 27 65
47 154 86 320 248 423 411 100 158 205 436 239 630 19 110 34 210 38 258 3 31
9 83 12 115 8 73 8 474 0 569 l-6 72 33 5 c35 6 228 33 292 41 22 3 74 10 115
16 102 15 115 17 195 24 125 12 194 66 255 197 28 59 76 225 68 233 -2 2 -35
-2 -73 -10 -39 -7 -83 -15 -100 -18 -29 -5 -428 -80 -490 -92 -16 -3 -64 -12
-105 -20 -41 -8 -108 -20 -148 -28 -40 -8 -74 -11 -76 -8 -2 3 -7 30 -10 60
-4 30 -9 64 -11 75 -2 12 -7 37 -10 56 -7 48 -49 263 -67 340 -3 14 25 22 127
35 28 3 88 12 135 20 47 8 105 17 130 20 63 9 102 15 120 20 8 2 35 6 60 9 25
3 54 8 65 10 11 2 43 7 70 10 64 9 113 17 134 21 9 1 41 6 71 10 30 4 64 9 75
11 11 2 40 7 65 10 25 3 52 7 60 9 18 5 58 12 120 20 25 3 70 10 100 15 30 5
78 12 105 16 28 3 59 8 70 10 10 2 37 6 60 9 22 3 78 12 125 20 47 8 105 17
130 20 25 3 88 13 140 21 52 8 109 17 125 20 17 2 41 6 55 9 14 3 43 7 65 10
22 2 126 18 230 34 105 16 210 32 235 36 54 7 87 13 160 25 30 5 75 12 100 15
52 7 83 12 160 25 30 5 75 12 100 15 25 3 56 8 70 10 29 5 28 5 254 40 92 14
184 28 205 31 20 2 61 9 91 14 30 5 73 12 95 15 22 2 51 7 65 9 14 3 43 7 65
11 44 6 84 12 130 20 17 3 46 7 65 10 19 3 125 19 235 36 110 17 229 35 265
40 36 5 76 12 90 14 23 4 267 41 333 51 53 8 82 12 112 18 17 2 50 8 75 11 25
3 52 8 60 10 8 2 38 6 65 10 75 9 118 16 135 20 8 2 38 7 65 10 59 8 91 12
165 25 62 11 91 15 170 26 30 4 57 8 60 9 3 1 30 5 60 9 30 4 111 17 180 28
69 11 134 21 145 23 65 8 133 19 235 35 63 11 135 22 160 25 25 4 113 17 195
30 83 13 168 26 190 29 49 7 114 17 138 22 15 3 67 -53 79 -86 2 -4 41 -11 88
-14 76 -6 238 -28 298 -40 12 -3 22 -3 22 0 0 9 -62 118 -76 135 -8 8 -14 19
-14 22 0 6 -55 100 -72 122 -4 6 -42 61 -83 124 -42 63 -83 120 -91 128 -8 8
-14 18 -14 22 0 4 -9 19 -21 32 -12 13 -44 54 -71 92 -28 37 -55 67 -59 67 -5
0 -9 6 -9 14 0 8 -3 16 -7 18 -5 2 -23 21 -42 43 -152 179 -371 400 -541 545
-29 25 -62 53 -74 63 -11 10 -34 28 -49 40 -16 12 -34 27 -40 32 -7 6 -32 26
-57 45 -25 19 -46 38 -48 42 -2 5 -9 8 -17 8 -7 0 -18 6 -24 14 -10 12 -202
144 -266 183 -190 116 -284 169 -423 238 -161 80 -277 135 -287 135 -3 0 -27
9 -53 21 -56 25 -66 29 -157 64 -38 15 -74 28 -80 29 -5 2 -48 15 -95 30 -179
59 -404 120 -480 132 -19 3 -48 9 -65 14 -16 5 -50 12 -75 16 -72 11 -92 14
-145 24 -27 5 -72 12 -100 15 -27 3 -63 8 -80 10 -16 3 -57 8 -90 11 -33 3
-80 7 -105 10 -61 6 -635 15 -641 10z m641 -340 c51 -7 228 -28 275 -32 22 -1
40 -3 40 -4 0 -2 20 -6 65 -14 19 -3 46 -8 60 -11 25 -6 62 -13 112 -20 85
-13 417 -107 593 -168 268 -94 598 -251 840 -400 65 -41 217 -139 230 -149 6
-4 55 -41 110 -81 297 -219 616 -522 835 -796 19 -24 42 -52 52 -62 15 -16 13
-17 -29 -24 -25 -3 -53 -8 -62 -10 -10 -2 -42 -7 -72 -10 -30 -4 -63 -9 -74
-11 -11 -1 -38 -5 -60 -8 -22 -3 -51 -8 -65 -11 -34 -7 -109 -18 -145 -21 -16
-1 -30 -3 -30 -4 0 -1 -16 -3 -35 -5 -19 -2 -35 -4 -35 -5 0 -1 -11 -3 -25 -5
-14 -1 -43 -5 -65 -9 -22 -4 -56 -9 -75 -11 -19 -2 -50 -6 -67 -9 -18 -3 -48
-9 -65 -12 -42 -7 -59 -10 -138 -19 -36 -4 -67 -8 -70 -10 -3 -2 -30 -6 -60
-10 -30 -3 -82 -11 -115 -16 -33 -6 -76 -12 -95 -14 -19 -2 -64 -8 -100 -14
-130 -21 -144 -23 -174 -26 -17 -2 -31 -4 -31 -5 0 -1 -11 -3 -25 -5 -55 -6
-135 -17 -140 -20 -3 -1 -30 -6 -60 -9 -30 -4 -71 -9 -90 -12 -19 -3 -52 -7
-72 -7 -21 -1 -38 -5 -38 -10 0 -4 -3 -6 -7 -5 -7 2 -32 -1 -148 -17 -11 -2
-33 -6 -50 -8 -16 -3 -52 -8 -80 -12 -27 -3 -61 -8 -75 -10 -52 -7 -116 -17
-131 -20 -9 -2 -40 -6 -70 -10 -30 -3 -61 -8 -69 -10 -14 -3 -81 -13 -140 -20
-14 -2 -38 -5 -55 -8 -16 -3 -50 -9 -75 -12 -25 -3 -72 -10 -105 -15 -33 -5
-80 -12 -105 -15 -25 -3 -52 -7 -60 -10 -8 -2 -39 -7 -69 -10 -30 -4 -63 -9
-75 -11 -19 -3 -42 -7 -136 -20 -20 -2 -47 -6 -60 -9 -13 -3 -41 -7 -62 -10
-21 -3 -55 -7 -76 -10 -21 -3 -47 -7 -57 -9 -11 -2 -45 -7 -75 -11 -30 -4 -62
-9 -70 -10 -8 -2 -37 -6 -65 -10 -65 -9 -81 -11 -132 -19 -24 -3 -62 -9 -85
-12 -65 -10 -79 -12 -133 -19 -27 -3 -57 -8 -65 -10 -8 -2 -37 -7 -65 -11 -68
-9 -83 -12 -97 -20 -7 -5 -8 -3 -3 6 6 9 4 11 -5 5 -7 -5 -25 -9 -39 -11 -14
-1 -26 -3 -26 -4 0 -2 -13 -4 -95 -14 -25 -3 -58 -8 -75 -11 -67 -11 -293 -45
-340 -50 -27 -3 -57 -8 -65 -10 -8 -3 -42 -7 -74 -10 -33 -4 -63 -8 -68 -11
-4 -3 -29 -7 -55 -9 -27 -3 -59 -7 -72 -9 -13 -3 -49 -8 -80 -12 -31 -3 -65
-8 -76 -10 -11 -3 -35 -7 -52 -9 -18 -3 -50 -8 -70 -11 -51 -7 -70 -10 -123
-18 -25 -4 -79 -11 -120 -17 -41 -7 -88 -13 -105 -15 -16 -1 -30 -3 -30 -4 0
-1 -11 -3 -25 -5 -14 -1 -38 -5 -55 -8 -29 -5 -94 -15 -145 -22 -14 -2 -45 -6
-70 -10 -25 -4 -56 -8 -70 -10 -43 -6 -123 -18 -197 -29 -16 -3 -48 -7 -73
-10 -25 -3 -56 -8 -70 -11 -25 -5 -78 -13 -135 -20 -28 -3 -48 -6 -142 -21
-21 -3 -49 -7 -63 -9 -14 -2 -41 -7 -60 -10 -37 -6 -89 -13 -152 -20 -21 -2
-46 -6 -55 -9 -10 -2 -40 -8 -68 -11 -27 -3 -106 -15 -175 -26 -149 -22 -145
-22 -133 -6 5 6 15 30 22 52 7 22 26 68 42 103 16 35 29 66 29 68 0 8 131 269
169 339 148 268 361 569 576 814 222 255 588 575 861 755 54 36 104 70 110 75
48 40 451 256 584 314 169 73 292 121 420 163 81 27 341 102 374 108 12 2 53
11 91 20 39 10 86 19 105 22 19 3 38 8 41 10 3 1 28 6 56 9 27 3 60 8 74 10
46 10 74 14 139 20 36 4 74 9 85 11 11 2 67 7 125 10 58 4 107 8 110 11 6 6
596 -4 640 -11z m-4799 -6373 c-12 -20 -14 -14 -5 12 4 9 9 14 11 11 3 -2 0
-13 -6 -23z"/>
<path d="M9686 8042 c-3 -2 -90 -12 -126 -14 -8 -1 -25 -7 -39 -14 -13 -7 -28
-11 -33 -8 -5 3 -15 0 -23 -6 -8 -7 -15 -9 -15 -6 0 4 -7 1 -15 -8 -9 -8 -22
-13 -29 -10 -8 3 -17 0 -21 -5 -3 -6 -11 -9 -16 -6 -5 4 -9 -1 -9 -10 0 -9 -5
-13 -10 -10 -6 3 -13 -1 -16 -9 -3 -9 -10 -14 -14 -11 -4 2 -18 -4 -30 -15
-13 -11 -26 -20 -31 -20 -12 0 -124 -112 -160 -160 -19 -25 -47 -61 -63 -82
-16 -20 -31 -43 -32 -51 -1 -9 -13 -31 -27 -49 -13 -18 -31 -50 -38 -70 -7
-21 -17 -38 -21 -38 -4 0 -8 -9 -8 -20 0 -11 -4 -20 -10 -20 -5 0 -9 -3 -8 -7
4 -13 -23 -83 -32 -83 -7 0 -25 -67 -22 -82 1 -5 -3 -8 -8 -8 -15 0 -12 -30 3
-31 29 -3 53 4 76 22 13 10 29 19 35 19 6 0 28 9 48 19 19 11 39 17 42 14 3
-4 6 -1 6 6 0 8 7 11 15 7 9 -3 18 0 21 7 4 11 18 16 62 19 6 1 12 6 12 11 0
5 7 7 15 3 8 -3 19 2 24 12 6 9 11 13 11 9 0 -4 10 -2 23 5 12 7 25 11 29 10
4 -1 27 7 52 17 24 11 47 17 50 14 3 -4 6 0 6 7 0 7 3 10 6 7 4 -3 15 -2 25 4
13 7 19 6 19 -1 0 -6 9 -2 21 9 12 11 30 18 40 16 10 -2 19 1 19 7 0 6 3 9 6
5 4 -3 22 0 40 8 19 8 34 11 34 8 0 -3 7 0 15 7 8 6 18 9 23 6 5 -3 20 1 35 9
14 7 28 11 30 8 3 -2 20 2 38 10 19 8 42 13 52 11 9 -1 17 1 17 5 0 4 6 8 13
8 6 0 53 8 102 18 50 10 99 19 110 20 11 2 20 4 20 5 0 2 69 9 113 12 12 1 22
5 22 8 0 5 28 7 148 11 23 1 45 -1 49 -5 7 -7 -12 -30 -27 -32 -6 -1 -11 -2
-12 -4 -4 -2 -32 -8 -80 -16 -21 -3 -38 -10 -38 -14 0 -5 -8 -7 -17 -6 -10 2
-27 -3 -38 -9 -11 -7 -30 -12 -42 -11 -12 2 -24 -3 -27 -10 -3 -7 -13 -12 -23
-12 -23 1 -203 -60 -222 -75 -12 -10 -13 -9 -6 3 5 9 -1 7 -14 -5 -13 -11 -25
-19 -27 -18 -4 3 -21 -2 -51 -14 -10 -3 -21 -5 -25 -5 -5 1 -8 -2 -8 -6 0 -4
-10 -8 -22 -9 -11 -1 -25 -8 -29 -15 -5 -7 -9 -9 -9 -4 0 5 -7 3 -15 -4 -8 -6
-20 -8 -26 -4 -8 5 -9 3 -4 -6 6 -10 3 -12 -14 -7 -14 3 -24 0 -28 -9 -3 -8
-9 -11 -14 -8 -5 3 -9 0 -9 -5 0 -6 -7 -11 -16 -11 -9 0 -29 -9 -46 -21 -16
-12 -32 -19 -35 -15 -3 3 -15 0 -27 -6 -11 -7 -24 -11 -28 -10 -5 1 -8 -2 -8
-7 0 -5 -14 -16 -30 -25 -17 -8 -27 -10 -24 -4 9 15 -34 -10 -57 -33 -10 -10
-30 -19 -43 -19 -13 0 -26 -7 -30 -15 -3 -8 -12 -15 -21 -15 -8 0 -15 -4 -15
-10 0 -5 -7 -10 -16 -10 -21 0 -74 -30 -96 -54 -10 -10 -18 -16 -18 -12 0 3
-11 -1 -24 -10 -14 -8 -29 -16 -33 -17 -4 -1 -7 -6 -5 -10 1 -5 -2 -5 -8 -2
-7 4 -21 -2 -33 -13 -12 -11 -32 -25 -44 -31 -41 -21 -35 -31 109 -164 19 -18
46 -38 61 -46 14 -8 24 -18 21 -23 -3 -4 0 -8 5 -8 6 0 13 0 16 0 3 0 14 -8
24 -17 39 -35 50 -43 66 -43 8 0 15 -4 15 -9 0 -9 127 -74 148 -74 6 0 12 -5
12 -10 0 -6 3 -8 6 -4 4 3 20 -1 36 -9 16 -9 36 -13 43 -10 7 2 16 2 19 -2 6
-6 24 -11 56 -16 9 -1 20 -4 25 -7 6 -3 45 -5 87 -5 43 1 78 -3 78 -7 0 -5 6
-5 12 -1 7 5 33 9 58 11 40 3 76 8 90 13 3 1 8 2 13 1 4 0 7 3 7 8 0 5 6 8 13
7 21 -2 157 46 152 54 -4 6 30 21 38 17 4 -2 91 61 115 82 12 12 22 19 22 15
0 -4 11 5 25 20 14 15 25 25 25 22 0 -2 15 10 34 27 18 18 42 39 52 48 22 19
104 109 104 115 0 9 41 44 51 44 5 0 7 5 4 10 -3 6 -1 10 5 10 6 0 8 5 5 10
-3 6 1 10 9 10 9 0 16 6 16 14 0 8 8 21 18 28 9 7 24 26 32 43 8 16 32 46 52
66 21 20 35 39 31 43 -3 3 -1 6 5 6 7 0 12 6 12 14 0 7 7 19 15 26 9 7 13 15
10 18 -2 3 13 22 35 43 22 22 41 42 41 46 5 26 28 63 72 113 8 8 29 38 47 65
18 28 46 65 62 84 32 36 32 40 -1 46 -11 2 -27 7 -34 12 -6 4 -20 6 -29 5 -10
-2 -18 2 -18 7 0 6 -11 11 -25 11 -14 0 -25 5 -25 10 0 6 -6 10 -12 8 -7 -1
-22 3 -33 9 -11 6 -29 13 -40 14 -11 2 -23 8 -27 13 -3 5 -12 11 -20 12 -30 5
-43 10 -56 22 -7 6 -20 12 -28 12 -8 0 -32 9 -53 20 -21 10 -41 16 -45 13 -3
-4 -6 -1 -6 5 0 7 -3 11 -7 10 -5 -1 -21 5 -38 12 -16 7 -32 14 -35 15 -3 0
-15 6 -27 13 -13 7 -23 10 -23 6 0 -3 -7 -1 -15 6 -8 7 -15 10 -15 6 0 -4 -10
0 -22 8 -13 8 -36 17 -51 20 -16 3 -35 10 -43 17 -7 6 -21 9 -29 5 -8 -3 -15
-1 -15 5 0 6 -4 7 -10 4 -5 -3 -10 -2 -10 3 0 5 -6 9 -12 10 -23 2 -43 7 -55
15 -7 5 -13 6 -13 3 0 -2 -15 0 -32 6 -18 5 -42 11 -53 14 -33 6 -60 12 -60
14 0 4 -94 13 -142 14 -29 1 -53 3 -53 6 0 6 -79 8 -84 2z m714 -456 c0 -2 -7
-6 -15 -10 -8 -3 -15 -1 -15 4 0 6 7 10 15 10 8 0 15 -2 15 -4z"/>
<path d="M7399 7876 c-2 -2 -33 -7 -68 -10 -36 -4 -67 -8 -70 -10 -3 -2 -35
-7 -71 -10 -36 -4 -74 -9 -85 -11 -11 -3 -40 -7 -65 -10 -25 -3 -54 -7 -65 -9
-11 -3 -24 -5 -28 -5 -8 -1 -2 -86 8 -121 3 -8 7 -35 10 -60 6 -49 45 -334 76
-555 10 -77 22 -158 24 -180 3 -22 8 -51 10 -65 4 -23 9 -57 21 -155 2 -22 7
-51 9 -65 3 -14 7 -45 10 -70 3 -25 7 -52 9 -60 3 -8 7 -42 11 -75 3 -33 15
-121 26 -195 11 -74 21 -148 23 -165 19 -133 15 -125 50 -120 17 2 81 11 141
20 61 8 124 17 140 20 17 2 50 7 75 10 25 3 54 8 65 10 11 2 31 4 43 4 23 1
24 3 17 54 -4 28 -9 68 -11 87 -3 19 -7 47 -10 62 -3 15 -7 42 -9 60 -3 34
-15 122 -20 148 -1 8 -6 40 -10 70 -3 30 -9 69 -12 85 -5 30 -6 41 -19 140
-16 125 -8 160 40 180 37 16 73 13 93 -7 19 -20 46 -141 58 -263 2 -24 16
-122 21 -149 2 -10 6 -42 9 -71 4 -29 17 -122 29 -207 l22 -153 35 1 c33 1 58
4 204 25 39 6 86 12 105 15 174 22 180 23 175 47 -5 26 -10 58 -35 247 -11 80
-22 156 -25 170 -2 14 -7 48 -10 75 -3 28 -7 61 -9 75 -3 14 -14 95 -26 180
-27 197 -34 227 -81 328 -96 208 -289 299 -504 237 -51 -14 -125 -57 -158 -90
-25 -24 -34 -11 -41 60 -3 33 -8 71 -11 85 -3 21 -22 157 -29 210 -6 46 -19
137 -22 150 -1 8 -3 21 -3 28 -1 11 -51 18 -62 8z"/>
<path d="M6724 7244 c-255 -37 -402 -128 -491 -302 l-38 -75 0 -226 c0 -199
-3 -230 -19 -263 -25 -51 -81 -83 -179 -103 -31 -6 -30 3 -7 -167 6 -40 13
-91 15 -113 3 -22 8 -51 10 -65 2 -14 7 -47 10 -75 14 -114 19 -130 40 -129
113 7 265 46 360 94 164 81 265 220 311 425 3 17 8 98 11 180 6 215 28 260
136 279 l39 7 -6 61 c-4 33 -8 63 -10 67 -2 3 -7 40 -11 81 -4 41 -8 77 -10
80 -2 3 -6 29 -10 59 -4 30 -8 61 -10 70 -2 9 -6 42 -10 74 -8 64 5 60 -131
41z"/>
<path d="M5005 7053 c-149 -31 -264 -94 -369 -199 -151 -152 -218 -322 -211
-537 10 -293 163 -523 430 -646 128 -60 340 -72 500 -30 97 26 258 120 317
186 16 18 16 20 -11 48 -15 17 -46 45 -67 64 -53 47 -216 193 -233 209 -11 11
-20 7 -53 -27 -47 -47 -77 -59 -139 -56 -126 6 -221 157 -216 344 4 160 90
253 226 247 47 -3 85 -27 119 -76 24 -36 25 -52 1 -55 -7 -1 -54 -8 -104 -16
-49 -7 -100 -13 -112 -12 -19 0 -23 -7 -29 -44 -12 -81 13 -199 44 -205 9 -2
33 -1 52 3 19 4 60 10 90 13 30 3 64 8 76 10 12 2 45 7 75 11 30 3 95 12 144
20 50 7 115 16 145 20 30 3 62 8 70 10 8 2 37 6 65 10 27 3 51 8 54 11 7 7 2
81 -10 131 -6 27 -13 59 -15 72 -9 44 -52 140 -89 195 -82 125 -223 233 -366
281 -69 23 -104 28 -199 31 -74 1 -140 -3 -185 -13z"/>
<path d="M4145 6929 c-106 -9 -165 -24 -253 -66 -148 -70 -262 -220 -297 -392
-15 -71 -20 -202 -11 -269 3 -18 8 -50 11 -71 3 -21 8 -56 11 -77 3 -22 7 -52
9 -67 2 -15 7 -47 10 -70 11 -80 26 -192 30 -217 2 -14 7 -47 11 -75 3 -27 8
-57 9 -66 2 -9 6 -40 10 -70 4 -30 8 -55 9 -56 1 -1 29 2 62 7 77 12 89 13
288 40 l168 24 -6 50 c-3 28 -8 60 -10 71 -2 11 -7 47 -11 80 -4 32 -8 67 -10
76 -2 9 -6 40 -10 69 -4 29 -8 61 -10 70 -2 9 -6 41 -10 71 -3 30 -11 83 -17
119 -25 156 -5 239 64 270 40 18 69 19 122 5 17 -5 27 -4 23 1 -3 5 -8 36 -11
69 -4 33 -9 67 -11 75 -2 8 -6 38 -10 65 -7 59 -9 75 -30 220 -9 60 -18 111
-21 114 -7 7 -22 7 -109 0z"/>
<path d="M10726 6680 c-53 -80 -167 -204 -222 -242 -27 -18 -32 -28 -28 -48 2
-14 7 -50 9 -82 3 -31 8 -71 11 -90 3 -18 7 -168 9 -333 3 -270 -1 -397 -20
-550 -3 -27 -8 -70 -11 -95 -9 -80 -13 -105 -14 -105 -1 0 -3 -12 -5 -26 -5
-37 -14 -89 -20 -119 -3 -14 -7 -38 -10 -55 -9 -61 -58 -263 -87 -360 -11 -38
-21 -74 -23 -80 -1 -5 -5 -17 -8 -25 -3 -8 -15 -46 -27 -85 -31 -97 -107 -297
-141 -373 -16 -35 -29 -65 -29 -68 0 -20 -208 -417 -222 -422 -4 -2 -6 -8 -2
-13 3 -5 0 -9 -5 -9 -6 0 -11 -4 -11 -9 0 -16 -133 -222 -244 -377 -27 -38
-166 -215 -181 -230 -5 -6 -32 -37 -60 -70 -75 -88 -314 -330 -402 -406 -43
-37 -91 -79 -108 -93 -146 -128 -457 -346 -656 -458 -110 -62 -332 -176 -409
-210 -289 -126 -675 -253 -885 -291 -16 -3 -41 -8 -55 -11 -14 -3 -36 -8 -50
-11 -14 -2 -36 -7 -50 -10 -14 -3 -38 -8 -55 -10 -16 -2 -41 -6 -55 -9 -14 -4
-41 -8 -60 -10 -44 -4 -124 -14 -170 -20 -124 -16 -227 -20 -480 -20 -252 0
-455 8 -500 20 -15 4 -109 15 -180 21 -19 1 -35 3 -35 4 0 2 -35 9 -70 14 -16
2 -41 7 -55 10 -14 3 -36 8 -50 10 -21 4 -141 29 -190 41 -39 9 -148 37 -175
45 -16 5 -61 19 -100 30 -38 12 -77 24 -85 27 -8 3 -20 7 -27 9 -24 5 -240 88
-343 132 -177 75 -459 221 -588 304 -15 10 -43 27 -62 38 -40 23 -69 41 -84
53 -6 4 -56 40 -111 79 -219 154 -372 285 -580 493 -185 184 -218 221 -329
360 -48 61 -96 120 -107 133 -10 12 -19 25 -19 29 0 4 -8 16 -18 27 -39 43
-221 321 -235 359 -12 31 -33 29 -93 -11 -32 -21 -92 -60 -132 -86 -40 -26
-72 -51 -70 -54 7 -15 65 -108 106 -170 23 -36 42 -66 42 -69 0 -2 5 -9 10
-16 6 -7 44 -59 85 -117 83 -116 111 -154 138 -181 9 -11 17 -22 17 -25 0 -3
6 -11 13 -19 6 -7 26 -30 44 -51 110 -136 330 -368 458 -483 73 -66 181 -158
260 -222 143 -115 403 -299 425 -299 5 0 10 -4 10 -10 0 -5 7 -10 15 -10 8 0
15 -4 15 -10 0 -5 4 -10 9 -10 12 0 114 -62 123 -75 4 -5 8 -6 8 -1 0 5 7 3
15 -4 16 -14 95 -58 155 -87 19 -9 38 -21 41 -26 3 -5 10 -9 15 -9 5 0 47 -18
94 -41 47 -23 87 -42 90 -43 3 0 27 -11 55 -23 27 -12 63 -28 80 -36 16 -7 80
-32 140 -55 61 -23 119 -46 130 -50 26 -11 191 -63 280 -88 181 -52 195 -56
295 -76 14 -3 57 -12 96 -20 39 -9 88 -18 110 -21 21 -3 66 -11 99 -16 65 -12
78 -14 175 -24 36 -4 79 -9 95 -11 213 -26 784 -25 980 0 17 3 57 7 90 11 95
10 413 63 425 70 4 2 22 7 41 10 19 3 52 11 74 17 22 5 51 12 65 15 14 2 48
11 75 19 28 9 61 18 75 20 40 8 267 84 365 121 50 19 95 36 100 37 6 2 21 8
35 13 82 34 110 46 155 66 97 42 381 190 483 251 57 33 111 66 120 71 10 6 32
20 49 33 17 12 36 22 41 22 6 0 12 3 14 8 2 4 39 31 83 61 292 199 607 475
845 741 41 46 82 91 90 100 14 15 94 111 112 135 5 6 22 28 39 50 16 22 35 47
42 55 7 8 28 37 47 65 34 48 41 58 68 89 6 8 12 19 12 23 0 4 10 20 23 35 12
15 35 49 51 75 16 27 44 71 61 98 46 72 83 139 83 149 0 5 5 12 10 15 11 7
152 280 201 391 90 203 142 339 197 515 35 109 99 337 108 385 2 14 14 70 26
125 22 105 25 123 45 245 2 14 7 48 10 75 3 28 10 84 16 125 30 231 33 826 5
1040 -2 14 -7 48 -10 75 -13 97 -17 131 -32 225 -9 52 -17 96 -18 98 -2 1 -15
-16 -30 -38z"/>
<path d="M9631 6004 c-24 -7 -49 -18 -56 -24 -6 -5 -15 -7 -18 -3 -4 3 -7 1
-7 -5 0 -7 -3 -11 -7 -10 -11 3 -81 -44 -119 -79 -40 -37 -104 -117 -104 -131
0 -6 -4 -12 -8 -14 -16 -6 -63 -138 -69 -195 -8 -74 -8 -113 2 -193 12 -102
28 -261 28 -288 0 -14 52 -11 182 11 l69 12 1 38 c0 20 -2 37 -5 37 -3 0 -6
26 -8 58 -2 31 -6 71 -9 87 -3 17 -7 82 -7 145 -1 94 2 121 17 149 25 44 96
121 113 121 8 0 14 4 14 9 0 4 20 14 45 21 46 13 49 17 45 60 -6 57 -8 75 -9
75 -1 0 -3 25 -5 55 -4 85 -8 88 -85 64z"/>
<path d="M8518 5815 c-2 -2 -33 -6 -70 -9 -37 -4 -87 -10 -112 -15 -25 -4 -48
-6 -51 -3 -3 3 -2 -25 2 -64 3 -38 7 -77 7 -87 0 -16 7 -17 56 -13 30 3 73 8
95 12 67 10 125 11 125 3 0 -5 6 -6 14 -3 21 8 94 -27 139 -67 38 -32 73 -86
63 -96 -2 -3 -34 -6 -70 -6 -36 -1 -66 -4 -66 -7 0 -4 -10 -6 -22 -7 -21 0
-64 -6 -143 -19 -78 -13 -156 -90 -185 -182 -41 -132 18 -260 148 -320 55 -25
105 -29 192 -18 19 3 56 7 81 10 70 8 90 12 137 31 53 21 121 97 144 158 21
58 18 135 -11 316 -29 177 -163 325 -336 370 -41 10 -132 21 -137 16z m289
-536 c27 -23 44 -75 33 -104 -5 -14 -7 -25 -5 -25 3 0 -3 -8 -12 -18 -10 -11
-21 -17 -25 -15 -3 2 -8 -1 -10 -7 -1 -5 -25 -12 -53 -14 -27 -2 -72 -8 -100
-12 -87 -13 -114 -9 -146 22 -16 15 -27 29 -25 32 3 2 1 14 -4 27 -11 29 18
78 57 98 15 8 62 18 103 21 41 4 76 9 78 11 9 8 94 -4 109 -16z"/>
<path d="M7620 5697 c-75 -28 -100 -41 -100 -49 0 -5 -4 -7 -10 -3 -5 3 -31
-16 -58 -43 -41 -41 -53 -48 -68 -39 -11 6 -21 13 -24 17 -22 28 -213 77 -235
60 -5 -4 -19 -6 -29 -4 -36 5 -141 -45 -187 -90 -58 -58 -63 -65 -90 -122 -26
-54 -34 -177 -19 -270 5 -28 11 -75 14 -105 4 -30 9 -74 12 -99 4 -25 8 -61 9
-80 2 -19 4 -35 6 -35 1 0 4 -22 12 -105 2 -23 6 -25 47 -25 25 0 66 4 93 9
37 7 46 12 43 25 -4 14 -7 40 -21 166 -2 17 -6 50 -10 75 -3 25 -8 65 -11 90
-3 25 -8 58 -10 75 -3 16 -7 66 -9 110 -4 68 -1 84 18 115 44 72 81 96 162
103 44 4 155 -55 155 -82 0 -6 4 -11 9 -11 5 0 11 -12 14 -27 3 -16 8 -39 11
-53 3 -14 8 -50 11 -80 4 -30 9 -75 12 -100 3 -25 6 -64 7 -87 0 -24 3 -43 6
-43 3 0 7 -15 9 -32 6 -83 20 -178 27 -190 3 -4 10 -5 17 -3 7 3 30 7 52 9 22
3 40 5 40 6 0 1 14 3 30 5 49 4 51 5 40 13 -6 4 -11 23 -13 42 -1 19 -4 53 -7
75 -3 22 -7 58 -10 80 -2 22 -6 54 -9 70 -2 17 -7 54 -11 83 -3 29 -9 76 -12
105 -15 121 -6 168 41 224 65 77 188 81 264 10 43 -40 54 -69 68 -187 3 -25 7
-58 10 -75 5 -29 7 -46 19 -150 3 -27 7 -66 10 -85 3 -19 7 -59 10 -88 6 -68
9 -72 48 -66 81 11 93 12 116 13 23 1 23 2 16 69 -5 37 -9 81 -10 97 -1 17 -5
50 -10 75 -4 25 -9 58 -10 75 -1 16 -5 53 -9 80 -3 28 -9 68 -12 90 -9 74 -13
97 -20 119 -32 106 -127 202 -236 238 -43 14 -176 18 -208 5z"/>
<path d="M6155 5520 c-17 -7 -50 -20 -65 -25 -89 -31 -195 -164 -202 -254 -1
-18 -5 -34 -8 -36 -8 -5 -4 -55 14 -200 3 -22 8 -62 11 -90 3 -27 8 -68 12
-90 3 -22 7 -53 9 -70 13 -131 17 -151 31 -162 9 -7 19 -11 22 -9 3 2 35 7 71
11 36 4 68 9 72 11 5 3 3 39 -2 39 -1 0 -3 20 -5 45 -1 25 -6 65 -10 90 -4 25
-9 65 -12 90 -2 25 -6 59 -9 75 -5 31 -10 75 -20 180 -6 62 9 145 26 145 6 0
10 6 10 14 0 18 71 66 104 70 14 1 29 6 32 9 4 3 14 3 23 -2 9 -5 24 -7 34 -6
9 2 17 -2 17 -8 0 -5 3 -8 6 -4 7 7 24 -5 66 -48 35 -34 46 -59 53 -118 3 -23
8 -60 11 -82 2 -22 7 -56 9 -75 2 -19 7 -60 11 -90 4 -30 8 -70 8 -87 1 -18 3
-33 6 -33 3 0 6 -19 8 -43 1 -23 4 -51 6 -62 3 -11 5 -28 5 -37 1 -14 8 -16
39 -12 20 3 58 6 84 7 27 1 49 5 49 10 3 18 3 37 -4 102 -11 99 -16 145 -23
185 -3 19 -7 55 -10 80 -2 25 -7 61 -10 80 -3 19 -7 51 -9 71 -9 90 -43 168
-100 225 -34 34 -106 84 -127 88 -7 1 -19 6 -27 11 -20 11 -181 16 -206 5z"/>
<path d="M5185 5401 c-3 -3 -22 -6 -43 -8 -135 -9 -136 -10 -127 -72 8 -53 12
-81 14 -98 1 -13 22 -12 126 4 109 16 176 9 243 -27 34 -18 62 -36 62 -39 0
-3 11 -18 24 -32 13 -14 28 -34 34 -45 9 -17 7 -20 -11 -21 -12 0 -44 -4 -72
-7 -27 -3 -75 -8 -105 -12 -100 -10 -146 -21 -178 -41 -54 -33 -107 -94 -117
-133 -1 -3 -5 -12 -8 -20 -23 -51 -11 -148 26 -217 18 -33 96 -103 116 -103 6
0 11 -4 11 -8 0 -10 5 -11 96 -16 39 -2 92 0 116 4 25 5 71 11 102 14 139 14
245 124 252 260 1 33 -2 68 -7 78 -6 11 -5 19 1 23 7 4 7 12 2 18 -4 7 -10 26
-11 42 -15 163 -57 255 -163 354 -34 32 -147 91 -187 98 -40 7 -190 10 -196 4z
m369 -550 c22 -24 25 -76 7 -110 -22 -41 -54 -49 -243 -67 -65 -6 -68 -6 -98
24 -22 23 -30 40 -30 67 0 68 37 98 135 109 107 12 150 18 154 22 6 6 56 -23
75 -45z"/>
<path d="M4739 5346 c-4 -4 -108 -19 -142 -20 -17 0 -18 -7 -12 -81 4 -44 8
-82 10 -85 3 -5 16 -117 21 -175 1 -16 3 -30 4 -30 2 0 7 -42 14 -120 2 -22 5
-41 6 -42 6 -7 5 -69 -1 -78 -4 -5 -8 -14 -9 -20 -5 -24 -15 -41 -38 -67 -70
-78 -197 -79 -270 -1 -33 36 -48 72 -57 133 -3 30 -9 71 -11 90 -3 19 -7 53
-9 75 -2 22 -6 56 -9 75 -2 19 -7 55 -10 80 -4 25 -9 65 -13 90 -3 25 -6 59
-7 77 -1 27 -4 31 -21 28 -41 -9 -111 -17 -132 -16 -28 1 -30 -9 -19 -99 12
-111 18 -158 21 -179 9 -55 22 -162 31 -256 2 -27 8 -52 12 -55 4 -3 8 -14 10
-25 6 -40 38 -91 89 -143 29 -29 54 -52 55 -51 2 1 23 -8 48 -21 24 -12 64
-23 87 -24 24 0 43 -4 43 -8 0 -7 54 -3 105 9 17 4 32 7 35 8 3 0 28 11 55 25
115 56 198 188 198 315 0 28 -14 173 -19 199 -2 12 -7 44 -9 72 -3 28 -8 62
-10 75 -3 13 -7 48 -10 78 -11 123 -23 180 -36 167z"/>
<path d="M3447 5179 c-58 -14 -128 -53 -183 -103 -49 -43 -52 -44 -70 -28 -33
30 -112 62 -172 69 -52 6 -98 8 -104 3 -3 -2 -19 -6 -54 -14 -103 -23 -226
-155 -250 -268 -6 -31 -6 -157 1 -168 3 -5 7 -37 10 -72 3 -35 7 -79 11 -98 3
-19 7 -53 9 -75 2 -22 4 -41 5 -42 2 -2 4 -16 5 -33 1 -16 3 -31 4 -32 2 -2 4
-29 6 -61 4 -61 19 -92 39 -80 6 4 29 9 51 10 22 1 51 4 65 7 14 2 28 5 32 5
4 1 6 7 3 14 -2 6 -6 35 -9 62 -3 28 -10 84 -16 125 -6 41 -12 98 -15 125 -3
28 -8 68 -11 90 -20 149 -19 179 6 231 21 42 77 100 87 90 4 -3 12 -1 20 6 22
18 95 13 139 -10 43 -22 93 -73 95 -98 2 -16 5 -33 8 -36 4 -5 10 -40 15 -88
3 -25 8 -67 11 -95 3 -27 8 -68 10 -90 2 -22 7 -51 9 -65 2 -14 7 -56 11 -93
10 -103 18 -133 33 -123 7 4 98 17 137 20 16 1 20 8 19 31 -2 33 -13 136 -19
175 -6 36 -14 98 -20 150 -3 25 -7 59 -9 75 -18 144 -18 164 3 208 24 49 80
106 99 99 7 -2 12 2 12 9 0 7 3 10 6 6 3 -3 16 -2 29 3 13 5 26 6 30 2 4 -4
14 -7 23 -7 31 -1 64 -17 94 -44 48 -42 61 -78 74 -202 3 -30 7 -65 9 -79 3
-14 7 -50 11 -80 3 -30 8 -66 10 -80 6 -31 15 -112 17 -165 2 -45 11 -55 42
-49 25 4 102 13 128 13 17 1 18 7 12 74 -4 39 -11 92 -15 116 -4 25 -7 53 -5
63 2 10 1 18 -3 18 -4 0 -8 17 -9 38 -1 20 -4 55 -7 77 -3 22 -8 63 -11 90 -4
42 -10 72 -24 127 -15 59 -33 90 -86 143 -55 56 -93 79 -157 99 -52 15 -140
18 -191 5z"/>
<path d="M4636 4392 c-3 -2 -66 -10 -99 -11 -10 -1 -16 -5 -13 -9 3 -5 8 -42
11 -82 4 -41 9 -78 11 -82 3 -4 5 -38 6 -76 1 -62 -2 -74 -30 -114 -29 -42
-97 -88 -129 -88 -7 0 -10 -13 -7 -32 2 -18 7 -50 9 -72 8 -74 10 -75 58 -59
90 30 160 77 214 146 17 21 56 109 59 132 5 30 4 137 -1 165 -2 14 -6 48 -10
75 -3 28 -8 59 -10 70 -2 11 -4 25 -4 31 -1 10 -57 15 -65 6z"/>
<path d="M9929 4396 c-2 -2 -24 -6 -49 -10 -76 -10 -214 -31 -270 -41 -14 -2
-45 -7 -70 -10 -25 -4 -56 -8 -70 -10 -14 -2 -68 -11 -120 -19 -52 -8 -185
-28 -295 -45 -110 -17 -216 -33 -235 -36 -19 -3 -89 -14 -155 -24 -66 -11
-140 -22 -165 -25 -25 -3 -55 -8 -67 -10 -11 -3 -43 -8 -70 -12 -26 -3 -57 -8
-68 -10 -10 -2 -37 -6 -60 -9 -22 -3 -69 -11 -105 -16 -36 -6 -80 -13 -99 -15
-18 -3 -117 -18 -220 -34 -102 -16 -203 -32 -225 -34 -21 -3 -46 -8 -55 -10
-9 -3 -38 -7 -66 -10 -27 -3 -60 -8 -71 -10 -33 -7 -95 -16 -139 -21 -22 -3
-51 -7 -65 -10 -14 -3 -38 -7 -55 -9 -51 -7 -119 -18 -140 -22 -10 -2 -37 -6
-60 -9 -22 -3 -80 -12 -130 -20 -49 -8 -108 -17 -130 -20 -22 -3 -51 -7 -65
-10 -14 -3 -42 -7 -62 -10 -77 -10 -115 -16 -178 -26 -36 -6 -78 -12 -93 -14
-43 -6 -101 -15 -122 -19 -36 -7 -100 -17 -130 -21 -16 -2 -43 -6 -60 -9 -16
-3 -50 -8 -75 -11 -83 -11 -169 -24 -205 -31 -10 -2 -37 -6 -60 -9 -22 -3 -94
-14 -160 -25 -66 -10 -142 -22 -170 -26 -27 -3 -59 -8 -70 -10 -11 -2 -49 -9
-85 -14 -36 -5 -76 -12 -90 -14 -14 -3 -90 -14 -170 -26 -80 -12 -156 -23
-170 -26 -14 -2 -47 -7 -75 -10 -27 -4 -53 -8 -56 -10 -3 -1 -28 -6 -55 -9
-27 -3 -74 -10 -104 -15 -56 -10 -79 -13 -160 -25 -25 -4 -56 -8 -70 -10 -25
-4 -201 -32 -250 -40 -14 -2 -43 -6 -65 -10 -23 -3 -52 -7 -65 -10 -13 -2 -46
-7 -74 -10 -28 -3 -58 -8 -66 -10 -8 -2 -33 -7 -55 -10 -23 -3 -51 -7 -64 -10
-13 -2 -42 -6 -65 -9 -35 -5 -314 -47 -401 -62 -51 -8 -78 -12 -130 -19 -27
-3 -57 -8 -65 -10 -8 -2 -35 -6 -60 -9 -25 -3 -54 -8 -65 -10 -11 -2 -40 -7
-65 -10 -46 -6 -86 -13 -130 -21 -14 -3 -47 -7 -75 -11 -27 -3 -51 -7 -53 -8
-2 -3 52 -80 97 -136 38 -48 76 -95 86 -106 5 -6 35 -40 65 -75 30 -35 114
-122 185 -194 114 -114 172 -168 275 -255 14 -12 34 -29 45 -38 11 -10 38 -31
60 -47 22 -17 46 -35 53 -42 7 -7 26 -20 42 -30 17 -9 30 -21 30 -25 0 -4 5
-8 10 -8 6 0 16 -5 23 -10 46 -39 61 -50 68 -50 4 0 14 -6 21 -12 15 -15 146
-101 168 -111 8 -4 29 -16 45 -27 17 -11 46 -28 65 -38 19 -10 71 -38 115 -61
44 -24 85 -46 90 -50 9 -6 76 -37 220 -101 48 -22 198 -80 278 -109 169 -61
491 -147 624 -166 12 -2 34 -6 50 -9 49 -11 68 -14 124 -21 30 -3 61 -8 69
-10 8 -2 51 -7 94 -11 44 -3 89 -8 100 -11 37 -9 578 -11 661 -3 44 4 114 11
155 15 41 3 82 8 90 10 8 2 40 7 70 10 30 3 62 8 70 10 8 2 29 6 45 9 74 12
103 18 145 27 42 10 53 12 105 23 11 2 40 10 65 17 25 7 52 14 60 15 37 7 338
103 385 123 11 5 52 21 90 36 39 15 98 40 132 56 34 16 82 36 105 46 24 9 50
21 58 28 8 6 35 20 60 30 25 11 47 22 50 25 3 3 23 14 45 26 101 53 161 88
167 98 4 6 8 8 8 4 0 -4 68 39 152 95 83 56 158 107 167 112 8 6 20 15 26 20
7 6 27 21 45 35 205 153 471 406 669 636 120 138 361 482 432 614 13 25 27 47
32 48 4 2 7 7 7 12 0 5 24 53 53 107 60 113 157 327 205 453 56 148 62 170 49
170 -8 0 -16 -2 -18 -4z m-4536 -944 l129 -77 52 -120 c50 -116 53 -120 81
-119 38 2 173 15 195 19 9 2 41 6 71 10 30 3 70 8 89 10 19 3 61 7 93 10 32 4
66 8 75 10 9 1 51 6 92 10 41 4 83 9 93 11 10 2 45 6 78 9 33 4 69 8 79 10 10
2 45 6 77 10 32 3 135 15 228 27 223 27 281 28 323 3 39 -23 79 -79 86 -119 3
-16 -13 -120 -35 -230 -23 -111 -43 -212 -45 -226 -20 -120 -42 -169 -100
-219 -49 -43 -81 -58 -144 -65 -49 -5 -135 -14 -295 -31 -27 -3 -72 -8 -100
-11 -27 -3 -66 -7 -85 -9 -38 -5 -97 -11 -200 -20 -36 -3 -81 -7 -100 -10 -19
-2 -57 -7 -85 -10 -27 -3 -51 -8 -54 -11 -2 -2 15 -22 39 -45 43 -41 44 -41
99 -35 31 4 74 9 96 11 22 2 105 11 185 20 80 8 172 18 205 21 33 4 71 8 85 9
14 2 59 6 100 10 41 4 87 8 101 11 35 5 113 -46 135 -88 22 -43 20 -81 -6
-118 -31 -44 -70 -67 -124 -74 -27 -4 -53 -9 -58 -12 -14 -9 3 -47 30 -71 15
-13 23 -27 19 -37 -3 -8 -2 -18 3 -21 13 -8 -9 -77 -33 -104 -52 -56 -123 -58
-186 -5 -42 35 -49 81 -21 139 28 58 21 78 -22 71 -18 -3 -60 -8 -93 -11 -33
-4 -67 -8 -75 -10 -8 -2 -40 -6 -70 -10 -183 -19 -190 -20 -190 -41 0 -8 9
-27 21 -43 48 -65 31 -154 -35 -185 -45 -21 -68 -20 -117 5 -109 55 -86 243
40 327 46 30 71 38 146 47 22 3 61 7 86 11 25 3 63 7 85 9 21 2 55 6 74 9 19
3 60 8 90 11 30 3 66 7 80 9 14 3 57 7 95 11 111 9 140 18 140 40 0 18 -7 20
-55 19 -50 0 -176 -10 -240 -18 -14 -2 -56 -6 -95 -10 -38 -4 -86 -8 -105 -11
-19 -2 -71 -7 -115 -10 -44 -4 -93 -8 -110 -10 -126 -16 -145 -16 -187 4 -77
35 -142 106 -178 196 -17 44 -67 163 -110 265 -43 102 -122 289 -175 415 -95
225 -132 295 -160 295 -7 0 -15 4 -17 8 -1 4 -49 38 -105 75 -110 71 -113 77
-69 123 30 31 53 23 199 -64z"/>
<path d="M7026 3172 c-3 -3 -19 -5 -36 -4 -16 0 -32 -4 -35 -9 -4 -5 -13 -5
-25 1 -10 6 -21 6 -24 1 -5 -7 -69 -14 -128 -13 -10 1 -18 -5 -18 -11 0 -8 -3
-7 -9 2 -6 9 -11 10 -15 2 -4 -6 -12 -9 -17 -6 -16 10 -44 -19 -45 -47 0 -15
4 -24 9 -21 6 3 8 -7 5 -26 -3 -18 0 -31 6 -31 6 0 4 -5 -4 -10 -8 -5 -10 -10
-4 -10 7 0 10 -13 8 -30 -4 -36 29 -78 49 -62 7 5 24 8 40 6 15 -1 27 0 27 4
0 6 60 12 163 15 20 0 37 4 37 7 0 4 10 6 23 5 24 -2 47 24 50 55 1 11 4 20 7
20 3 0 5 21 6 46 1 25 6 49 11 52 10 7 11 48 1 57 -8 8 -76 14 -82 7z"/>
<path d="M6477 3113 c-3 -2 -21 -5 -41 -7 -21 -2 -40 -6 -43 -10 -3 -3 -14 -1
-24 4 -11 6 -20 6 -24 1 -3 -6 -14 -8 -24 -6 -29 5 -65 -29 -54 -52 5 -10 8
-33 8 -50 0 -18 2 -33 5 -33 10 0 6 -44 -5 -52 -6 -5 -5 -8 3 -8 6 0 12 -9 12
-20 0 -27 26 -36 61 -23 20 8 31 7 40 -1 9 -8 10 -8 5 1 -5 9 3 11 29 9 21 -3
35 1 35 8 0 6 5 4 10 -4 6 -10 10 -11 10 -3 0 9 7 10 26 3 16 -7 23 -7 19 0
-6 9 1 12 22 9 13 -1 21 36 11 49 -7 8 -6 12 3 12 11 0 11 2 2 8 -7 4 -14 35
-16 67 -5 75 -16 100 -44 101 -12 1 -24 0 -26 -3z"/>
<path d="M5998 3059 c-6 -4 -25 -6 -43 -5 -18 1 -31 -2 -29 -5 2 -4 -14 -6
-36 -5 -22 1 -45 -1 -52 -5 -7 -4 -19 -2 -27 4 -12 9 -13 9 -7 0 5 -10 -4 -13
-33 -13 -23 0 -44 0 -47 1 -12 1 -24 -25 -24 -53 0 -16 5 -28 11 -28 5 0 7 -4
4 -10 -3 -5 -1 -10 4 -10 6 0 11 -9 11 -19 0 -11 5 -23 10 -26 6 -3 10 -15 10
-26 0 -10 5 -19 10 -19 6 0 10 -5 10 -11 0 -28 57 -46 86 -27 5 4 19 5 30 4
10 -2 23 -1 28 2 5 3 27 6 50 6 23 1 47 5 54 9 7 5 12 3 12 -4 0 -7 4 -8 13
-2 6 5 30 11 51 12 22 1 43 4 47 7 10 6 7 114 -2 114 -4 0 -6 22 -5 50 1 35
-3 52 -14 57 -19 9 -109 10 -122 2z"/>
<path d="M6930 2788 c-30 -3 -80 -9 -110 -13 -30 -3 -64 -8 -75 -10 -11 -2
-24 -4 -28 -4 -7 -1 -6 -41 8 -186 2 -16 4 -36 4 -43 1 -11 17 -12 74 -6 39 4
82 7 95 7 12 1 22 5 22 10 0 4 5 5 10 2 6 -3 10 -1 10 4 0 6 5 11 11 11 29 0
74 77 88 153 17 91 16 92 -109 75z"/>
<path d="M6531 2743 c-1 -6 -9 -12 -18 -12 -45 0 -120 -8 -128 -12 -6 -3 -21
-5 -35 -4 -32 1 -52 -23 -39 -47 7 -13 6 -18 -3 -18 -9 0 -9 -3 2 -10 8 -5 11
-10 6 -10 -5 0 -2 -8 5 -17 12 -15 12 -16 -1 -8 -12 7 -13 6 -4 -6 5 -8 10
-34 10 -59 -1 -33 4 -49 18 -59 15 -12 20 -12 28 0 7 10 11 11 14 2 4 -9 14
-8 39 3 26 10 35 11 38 1 4 -7 6 -8 6 -1 1 7 14 10 31 8 17 -2 30 1 30 7 0 8
6 7 16 -2 13 -10 17 -10 24 0 4 8 13 10 19 7 6 -4 11 -4 12 1 5 41 5 63 0 63
-4 0 -7 29 -8 64 -1 70 -17 111 -38 102 -8 -3 -16 0 -19 7 -3 9 -5 9 -5 0z"/>
<path d="M6117 2694 c-2 -3 -47 -7 -98 -11 -52 -3 -105 -7 -119 -8 -14 -2 -33
-3 -43 -4 -25 -1 -18 -39 24 -119 51 -101 107 -127 220 -104 25 5 52 8 60 6 9
-1 16 3 16 10 0 6 4 19 8 29 4 10 3 17 -4 17 -9 0 -9 5 -1 20 8 14 8 20 0 20
-8 0 -8 6 0 20 6 11 7 20 2 20 -4 0 -8 9 -9 20 -1 13 2 18 10 13 9 -5 8 -2 0
9 -7 8 -10 18 -6 21 3 4 1 13 -6 21 -12 14 -47 27 -54 20z"/>
<path d="M6761 1871 c-17 -11 -7 -41 13 -41 15 0 29 27 20 41 -7 11 -15 11
-33 0z"/>
<path d="M6125 1809 c-4 -12 -2 -26 4 -32 15 -15 46 16 38 37 -9 23 -34 20
-42 -5z"/>
</g>
</svg>
